<svg xmlns="http://www.w3.org/2000/svg" width="36" height="36" viewBox="0 0 36 36" fill="none">
  <g clip-path="url(#clip0_80_954)">
    <path d="M5.625 7.875H30.375V24.75C30.375 25.0484 30.2565 25.3345 30.0455 25.5455C29.8345 25.7565 29.5484 25.875 29.25 25.875H23.625C23.3266 25.875 23.0405 25.7565 22.8295 25.5455C22.6185 25.3345 22.5 25.0484 22.5 24.75V21.375H13.5V29.25C13.5 29.5484 13.3815 29.8345 13.1705 30.0455C12.9595 30.2565 12.6734 30.375 12.375 30.375H6.75C6.45163 30.375 6.16548 30.2565 5.95451 30.0455C5.74353 29.8345 5.625 29.5484 5.625 29.25V7.875Z" stroke="url(#paint0_linear_80_954)" stroke-width="2" stroke-linecap="round" stroke-linejoin="round"/>
    <path d="M13.5 16.875H5.625" stroke="url(#paint1_linear_80_954)" stroke-width="2" stroke-linecap="round" stroke-linejoin="round"/>
    <path d="M13.5 7.875V21.375" stroke="url(#paint2_linear_80_954)" stroke-width="2" stroke-linecap="round" stroke-linejoin="round"/>
    <path d="M22.5 16.875H30.375" stroke="url(#paint3_linear_80_954)" stroke-width="2" stroke-linecap="round" stroke-linejoin="round"/>
    <path d="M22.5 7.875V21.375" stroke="url(#paint4_linear_80_954)" stroke-width="2" stroke-linecap="round" stroke-linejoin="round"/>
  </g>
  <defs>
    <linearGradient id="paint0_linear_80_954" x1="5.625" y1="19.125" x2="30.375" y2="19.125" gradientUnits="userSpaceOnUse">
      <stop stop-color="#5936FF"/>
      <stop offset="1" stop-color="#BA2BFD"/>
    </linearGradient>
    <linearGradient id="paint1_linear_80_954" x1="5" y1="17" x2="31.5" y2="17" gradientUnits="userSpaceOnUse">
      <stop stop-color="#5936FF"/>
      <stop offset="1" stop-color="#BA2BFD"/>
    </linearGradient>
    <linearGradient id="paint2_linear_80_954" x1="5" y1="14.625" x2="32" y2="14.5" gradientUnits="userSpaceOnUse">
      <stop stop-color="#5936FF"/>
      <stop offset="1" stop-color="#BA2BFD"/>
    </linearGradient>
    <linearGradient id="paint3_linear_80_954" x1="4.5" y1="17.5" x2="31.5" y2="17.5" gradientUnits="userSpaceOnUse">
      <stop stop-color="#5936FF"/>
      <stop offset="1" stop-color="#BA2BFD"/>
    </linearGradient>
    <linearGradient id="paint4_linear_80_954" x1="4.5" y1="15" x2="32.5" y2="15" gradientUnits="userSpaceOnUse">
      <stop stop-color="#5936FF"/>
      <stop offset="1" stop-color="#BA2BFD"/>
    </linearGradient>
    <clipPath id="clip0_80_954">
      <rect width="36" height="36" fill="white"/>
    </clipPath>
  </defs>
</svg>